# xmcd
#
# Track frame offsets: 
#        150
#        26779
#        47934
#        61748
#        74418
#        88020
#        105419
#        118477
#        132532
#        149202
#        168396
#        189647
#        211190
#        226844
#        247062
#        267527
#
# Disc length: 3845 seconds
#
# Revision: 0
# Processed by: cddbd v1.5.2PL0 Copyright (c) Steve Scherf et al.
# Submitted via: ExactAudioCopy v1.0b4
#
DISCID=fe0f0310
DTITLE=Peter Green Splinter Group - The Very Best Of [ disk 2 ]
DYEAR=2013
DGENRE=Blues Rock
TTITLE0=Burglar
TTITLE1=Hiding In Shadows
TTITLE2=Man Of The World
TTITLE3=Dead Shrimp Blues (Feat. Hubert Sumlin)
TTITLE4=Little Queen Of Spades (Feat. Otis Rush)
TTITLE5=They're Red Hot (Feat. Dr. John)
TTITLE6=Cross Road Blues (Feat. Buddy Guy)
TTITLE7=Come On In My Kitchen
TTITLE8=Downsize Blues (Repossess My Body)
TTITLE9=Feeling Good
TTITLE10=Time Keeps Slipping Away
TTITLE11=Underway (Feat. Snowy White)
TTITLE12=Ain't Nothin' Gonna Chnage It
TTITLE13=Look Out For Yourself
TTITLE14=Don't Walk Away
TTITLE15=I'm Ready For You
EXTD=
EXTT0=
EXTT1=
EXTT2=
EXTT3=
EXTT4=
EXTT5=
EXTT6=
EXTT7=
EXTT8=
EXTT9=
EXTT10=
EXTT11=
EXTT12=
EXTT13=
EXTT14=
EXTT15=
PLAYORDER=
